<?xml version="1.0" encoding="UTF-8"?>
<svg version="1.1" xmlns="http://www.w3.org/2000/svg" width="512" height="512">
<path d="M0 0 C22.89330418 17.43389963 32.92823596 46.31278475 40.375 73.0625 C40.72111328 74.29959717 41.06722656 75.53669434 41.42382812 76.8112793 C43.16208829 83.23004007 44.50010132 89.36563041 45 96 C45.98613281 95.63648438 46.97226562 95.27296875 47.98828125 94.8984375 C61.71467259 90.00319502 75.73312601 86.88748654 90 84 C91.27230469 83.72929687 92.54460937 83.45859375 93.85546875 83.1796875 C113.42038539 79.65849845 138.78670416 78.86211338 155.94921875 90.37109375 C161.48616269 94.76900922 165.6985744 99.88482887 167 107 C169.15636265 130.07308039 158.53192354 149.12205894 144.26074219 166.46289062 C143.05387008 167.93432107 141.87388667 169.42768266 140.6953125 170.921875 C134.41180901 178.67086013 127.46593087 185.7452544 120.4375 192.8125 C119.68889709 193.56900345 119.68889709 193.56900345 118.9251709 194.34078979 C117.49637579 195.78124387 116.0589016 197.21307326 114.62109375 198.64453125 C113.7798999 199.48346924 112.93870605 200.32240723 112.07202148 201.18676758 C110 203 110 203 108 203 C108 203.66 108 204.32 108 205 C108.55163818 205.2278418 109.10327637 205.45568359 109.67163086 205.69042969 C112.68268997 207.38397284 114.79892421 209.5212848 117.25390625 211.953125 C117.75155487 212.44521957 118.24920349 212.93731415 118.76193237 213.44432068 C120.3689442 215.03954135 121.96669826 216.64356934 123.5625 218.25 C124.10601105 218.79500153 124.64952209 219.34000305 125.20950317 219.90151978 C133.10959453 227.84081391 140.52612575 235.83644059 147 245 C147.77859375 246.04542969 148.5571875 247.09085938 149.359375 248.16796875 C160.91297461 264.08324606 169.27113308 280.9297606 167 301 C165.0236226 308.84175547 160.3197083 314.67020012 153.6875 319.125 C139.57248456 326.98967136 124.67156018 326.49316098 109 326 C109.33 323.03 109.66 320.06 110 317 C111.37671875 316.96261719 112.7534375 316.92523438 114.171875 316.88671875 C134.89845379 316.33444068 134.89845379 316.33444068 153 307 C157.66196962 301.8186918 157.65625336 295.33847068 157.44921875 288.65625 C156.70616611 282.60844767 154.61528559 277.46643248 152 272 C151.56558594 271.08734375 151.13117188 270.1746875 150.68359375 269.234375 C144.52824672 257.23933976 136.15623427 246.81520567 127 237 C125.93318883 235.75367734 124.87053997 234.50377736 123.8125 233.25 C120.33768126 229.26945646 116.6508756 225.5063914 112.9375 221.75 C112.34751221 221.14704102 111.75752441 220.54408203 111.1496582 219.92285156 C107.65994922 216.42582867 104.21051986 213.58911724 100 211 C99.46125244 211.49266357 98.92250488 211.98532715 98.36743164 212.49291992 C92.92740375 217.40632362 87.31301358 221.93431345 81.4375 226.3125 C80.57705078 226.97870361 79.71660156 227.64490723 78.83007812 228.33129883 C74.78088702 231.42235569 70.98976098 234.15798941 66.28515625 236.1484375 C61.47297165 238.32537815 57.71764574 240.3156247 55 245 C52.15386587 255.28828842 51.8441838 266.09567818 51.27246094 276.70556641 C50.9553276 282.23072367 50.20155202 287.66531539 49.3125 293.125 C49.19221436 293.92220459 49.07192871 294.71940918 48.94799805 295.54077148 C48.14490884 300.71018232 48.14490884 300.71018232 47 303 C47.79664063 303.19335938 48.59328125 303.38671875 49.4140625 303.5859375 C59.93848858 306.17223199 59.93848858 306.17223199 65 308 C64.67 310.97 64.34 313.94 64 317 C57.3227105 316.39297368 51.29872004 314.22368606 45 312 C44.90847656 313.20011719 44.81695312 314.40023438 44.72265625 315.63671875 C43.98599629 322.20003872 42.20511634 328.46314553 40.4375 334.8125 C40.26081787 335.44972992 40.08413574 336.08695984 39.90209961 336.74349976 C36.7116603 348.18049536 32.89451588 359.18117555 28 370 C27.67531738 370.72493652 27.35063477 371.44987305 27.01611328 372.19677734 C19.75355988 388.17873285 10.12715262 402.94993052 -6 411 C-13.82298086 413.67244688 -24.06663816 413.06301968 -31.50390625 409.5703125 C-60.79211919 391.14486399 -71.4720336 349.47006565 -78.67456055 317.95947266 C-79 316 -79 316 -79 312 C-80.47919922 312.54527344 -80.47919922 312.54527344 -81.98828125 313.1015625 C-95.71467259 317.99680498 -109.73312601 321.11251346 -124 324 C-125.27230469 324.27070313 -126.54460937 324.54140625 -127.85546875 324.8203125 C-147.42038539 328.34150155 -172.78670416 329.13788662 -189.94921875 317.62890625 C-195.48616269 313.23099078 -199.6985744 308.11517113 -201 301 C-202.2233232 287.91044175 -200.19635175 276.72674046 -194 265 C-191.33333333 266.33333333 -188.66666667 267.66666667 -186 269 C-186.60703858 272.58472254 -187.63012643 275.60556291 -189.0625 278.9375 C-191.91232256 286.66229375 -192.75746854 295.69866169 -189.625 303.5 C-185.69501604 309.91714165 -178.42477488 312.8268379 -171.421875 314.640625 C-165.14780781 316.1287914 -159.18093987 316.50036402 -152.75 316.4375 C-151.6259375 316.42920166 -150.501875 316.42090332 -149.34375 316.41235352 C-129.48037797 316.02126554 -110.72157557 311.16569375 -91.7109375 305.75683594 C-88.15681115 304.76459965 -84.58568735 303.87056352 -81 303 C-81.28875 301.97390625 -81.5775 300.9478125 -81.875 299.890625 C-83.44446605 293.59618192 -84.163784 287.17428176 -85 280.75 C-85.18631473 279.40702563 -85.37349708 278.06417135 -85.56152344 276.72143555 C-86.37348018 270.80125262 -87.09558008 264.96055981 -87.140625 258.97265625 C-86.99849027 250.63830702 -86.99849027 250.63830702 -90.37353516 243.31445312 C-94.09464603 240.0091623 -98.35182635 237.69911046 -102.70507812 235.33349609 C-106.6684459 233.03052643 -110.21165771 230.19968327 -113.8125 227.375 C-114.52172607 226.82956543 -115.23095215 226.28413086 -115.96166992 225.72216797 C-121.06137154 221.79036868 -126.02112174 217.71708234 -130.8984375 213.51171875 C-132.97443012 211.70802654 -132.97443012 211.70802654 -136 212 C-138.14551888 213.75623499 -140.13003587 215.52274844 -142.125 217.4375 C-142.69887451 217.97793945 -143.27274902 218.51837891 -143.86401367 219.07519531 C-148.66940142 223.62237311 -153.37601879 228.26848434 -158 233 C-160.8605891 231.64062915 -162.85927699 230.35479531 -165 228 C-163.52706969 224.58270556 -161.61375065 222.38025932 -158.97265625 219.77734375 C-158.18052734 218.99166016 -157.38839844 218.20597656 -156.57226562 217.39648438 C-155.74404297 216.58501953 -154.91582031 215.77355469 -154.0625 214.9375 C-152.8259668 213.71450195 -152.8259668 213.71450195 -151.56445312 212.46679688 C-150.03228837 210.95205723 -148.49807918 209.43938077 -146.96118164 207.92944336 C-145.29916108 206.29431969 -143.64569454 204.65152688 -142 203 C-142.55163818 202.7721582 -143.10327637 202.54431641 -143.67163086 202.30957031 C-146.68268997 200.61602716 -148.79892421 198.4787152 -151.25390625 196.046875 C-152.00037918 195.30873314 -152.00037918 195.30873314 -152.76193237 194.55567932 C-154.3689442 192.96045865 -155.96669826 191.35643066 -157.5625 189.75 C-158.10601105 189.20499847 -158.64952209 188.65999695 -159.20950317 188.09848022 C-167.10959453 180.15918609 -174.52612575 172.16355941 -181 163 C-181.77859375 161.95457031 -182.5571875 160.90914062 -183.359375 159.83203125 C-194.92970932 143.89370159 -203.23215825 127.08942422 -201 107 C-200.16478734 103.56005632 -198.96869448 100.92827826 -197 98 C-196.61070312 97.37996094 -196.22140625 96.75992188 -195.8203125 96.12109375 C-189.00000246 86.7784797 -176.82138702 83.86416629 -166 82 C-161.5516272 81.59214711 -157.15265185 81.52250788 -152.6875 81.5625 C-151.47545898 81.57007324 -150.26341797 81.57764648 -149.01464844 81.58544922 C-125.34038856 82.00919806 -101.08046401 87.55880866 -79 96 C-78.87753906 94.8553125 -78.75507813 93.710625 -78.62890625 92.53125 C-78.07313032 88.08504254 -77.07197292 83.82943731 -75.9375 79.5 C-75.75123047 78.77296875 -75.56496094 78.0459375 -75.37304688 77.296875 C-74.91973545 75.53012276 -74.4604998 73.76489225 -74 72 C-71.03 72.99 -68.06 73.98 -65 75 C-65.28875 76.31355469 -65.5775 77.62710938 -65.875 78.98046875 C-66.25026896 80.7160877 -66.62525408 82.45176804 -67 84.1875 C-67.19078125 85.05181641 -67.3815625 85.91613281 -67.578125 86.80664062 C-67.75859375 87.64775391 -67.9390625 88.48886719 -68.125 89.35546875 C-68.37636719 90.51018677 -68.37636719 90.51018677 -68.6328125 91.68823242 C-69.02550915 94.16060247 -69.06185285 96.50075809 -69 99 C-68.26177002 99.28085449 -67.52354004 99.56170898 -66.76293945 99.85107422 C-63.27602417 101.18356723 -59.79300993 102.52588573 -56.3125 103.875 C-55.6814032 104.1193277 -55.0503064 104.3636554 -54.40008545 104.61538696 C-44.89735104 108.30938599 -35.64707066 112.32622601 -26.57543945 117.00146484 C-20.59369748 120.03657968 -20.59369748 120.03657968 -14 120 C-10.8523578 118.76278771 -7.87928378 117.23595458 -4.875 115.6875 C5.20648667 110.66779788 15.51447809 106.5153274 26.02001953 102.49291992 C27.17356934 102.05052979 28.32711914 101.60813965 29.515625 101.15234375 C30.54977539 100.76038818 31.58392578 100.36843262 32.64941406 99.96459961 C34.91861885 99.20995446 34.91861885 99.20995446 36 98 C30.92812714 68.75127601 20.14778978 28.70993677 -4.0859375 9.33203125 C-10.06939368 5.47626617 -16.03079331 4.74280977 -23 6 C-34.92413828 10.57694196 -41.71918358 21.49926005 -48 32 C-50.64 31.01 -53.28 30.02 -56 29 C-54.87685241 19.39084838 -45.31895002 8.95256564 -38 3 C-26.62459138 -4.8474831 -12.44629442 -7.83006315 0 0 Z M-188.47265625 101.6171875 C-193.01550653 108.16279973 -192.68695219 115.34204438 -192 123 C-190.78925561 127.57682253 -189.04055243 131.73486654 -187 136 C-186.56558594 136.91265625 -186.13117188 137.8253125 -185.68359375 138.765625 C-179.52806987 150.76100488 -171.15581383 161.18399466 -162 171 C-160.95420763 172.22565838 -159.91241596 173.45474363 -158.875 174.6875 C-155.2269014 178.86779181 -151.33823274 182.80726808 -147.4375 186.75 C-146.48109619 187.7258606 -146.48109619 187.7258606 -145.50537109 188.72143555 C-141.89403822 192.33978707 -138.36667664 195.33558713 -134 198 C-133.46052734 197.50661133 -132.92105469 197.01322266 -132.36523438 196.50488281 C-126.94798076 191.61165416 -121.36283129 187.09528171 -115.5 182.75 C-114.72914063 182.17121094 -113.95828125 181.59242188 -113.1640625 180.99609375 C-112.35710937 180.39410156 -111.55015625 179.79210937 -110.71875 179.171875 C-109.86095947 178.51598389 -109.00316895 177.86009277 -108.11938477 177.18432617 C-105.66150159 175.46321161 -103.29319299 174.02927193 -100.67553711 172.59106445 C-91.35142409 167.27663667 -91.35142409 167.27663667 -86.20166016 158.25048828 C-85.096169 152.76883997 -84.81331637 147.26209612 -84.5625 141.6875 C-84.42339248 139.79696877 -84.27694596 137.90696276 -84.12304688 136.01757812 C-83.83351962 132.37163084 -83.58155174 128.7263493 -83.35986328 125.07568359 C-82.92300439 118.33331934 -82.01425613 111.67777954 -81 105 C-95.39568303 99.75506122 -110.01076653 96.13013527 -125 93 C-126.27359375 92.72929687 -127.5471875 92.45859375 -128.859375 92.1796875 C-136.5605804 90.81952436 -144.32417723 90.77386001 -152.125 90.6875 C-153.75308594 90.66067139 -153.75308594 90.66067139 -155.4140625 90.63330078 C-167.01174949 90.64561629 -180.2275541 92.56288434 -188.47265625 101.6171875 Z M47 105 C47.14099121 106.04639648 47.28198242 107.09279297 47.42724609 108.17089844 C47.84562465 111.27969413 48.25997894 114.38900382 48.67285156 117.49853516 C49.1397063 121.01032758 49.61983585 124.51997451 50.10839844 128.02880859 C52.13322587 142.79120125 52.13322587 142.79120125 52.1796875 149.5546875 C52.01531246 157.68335786 52.01531246 157.68335786 55.46728516 164.74853516 C59.45413923 168.32767898 63.9642828 170.93586057 68.60693359 173.56835938 C72.60284093 175.95889198 76.21472286 178.81904805 79.875 181.6875 C80.93303833 182.49985107 80.93303833 182.49985107 82.01245117 183.32861328 C87.09804044 187.24078858 92.03861142 191.29799778 96.8984375 195.48828125 C98.97443012 197.29197346 98.97443012 197.29197346 102 197 C104.60206923 194.99528152 104.60206923 194.99528152 107.375 192.3125 C108.15967651 191.57580078 108.15967651 191.57580078 108.96020508 190.82421875 C110.65068128 189.22680779 112.32691502 187.61560711 114 186 C114.8345874 185.19828369 114.8345874 185.19828369 115.68603516 184.38037109 C123.00186546 177.32011565 129.77293553 170.05719986 136 162 C136.74894531 161.05640625 137.49789062 160.1128125 138.26953125 159.140625 C148.77986926 145.60431233 159.19367335 129.90467966 158.40625 112.16796875 C157.68936278 106.57762705 156.32811814 102.99879691 152.01171875 99.29296875 C123.98912785 79.40128505 76.09415262 93.87748301 47 105 Z M-72 108 C-73.98221066 114.52438777 -74.97282621 120.97858567 -75.85986328 127.74121094 C-76.12267054 129.73235099 -76.39916693 131.72166857 -76.67578125 133.7109375 C-77.67259171 141.19076339 -78.26597642 148.45415045 -78 156 C-71.88020105 152.73634553 -65.86389717 149.35075913 -59.9375 145.75 C-54.17015292 142.25279488 -48.33448925 138.89889359 -42.4375 135.625 C-41.68782959 135.20831055 -40.93815918 134.79162109 -40.16577148 134.36230469 C-36.15397987 132.14672314 -32.11704127 130.01624454 -28 128 C-28 127.34 -28 126.68 -28 126 C-42.49340942 119.46598407 -56.98669213 113.24302647 -72 108 Z M34.54833984 108.78515625 C33.52949707 109.20667969 32.5106543 109.62820312 31.4609375 110.0625 C30.32954346 110.5268042 29.19814941 110.9911084 28.0324707 111.46948242 C26.82550537 111.97455322 25.61854004 112.47962402 24.375 113 C22.54811646 113.75470581 22.54811646 113.75470581 20.68432617 114.5246582 C11.73854512 118.23411607 2.8356799 122.03544531 -6 126 C-6 126.66 -6 127.32 -6 128 C-5.45287354 128.28085449 -4.90574707 128.56170898 -4.34204102 128.85107422 C11.19976843 136.85160889 26.50390435 145.11638111 40.99609375 154.91796875 C41.65738281 155.27503906 42.31867188 155.63210937 43 156 C43.66 155.67 44.32 155.34 45 155 C44.47085967 150.37714665 43.93763063 145.7547883 43.40087891 141.1328125 C43.21946149 139.56587974 43.03909268 137.99882516 42.85986328 136.43164062 C41.58321455 122.59317989 41.58321455 122.59317989 39 109 C36.97116473 107.69445646 36.97116473 107.69445646 34.54833984 108.78515625 Z M-55.8125 152.8125 C-56.69213409 153.34567337 -56.69213409 153.34567337 -57.58953857 153.88961792 C-70.31077274 160.39734737 -70.31077274 160.39734737 -80 170 C-80.11743364 172.12769595 -80.16981404 174.25908309 -80.19287109 176.38989258 C-80.20104858 177.04539597 -80.20922607 177.70089935 -80.21765137 178.37626648 C-80.24249562 180.54901211 -80.25901911 182.72169244 -80.2734375 184.89453125 C-80.27876118 185.63667059 -80.28408485 186.37880993 -80.28956985 187.14343834 C-80.31629782 191.07193341 -80.33567339 195.00039675 -80.35009766 198.92895508 C-80.36674106 202.98456707 -80.41151587 207.03936571 -80.4624691 211.0946703 C-80.49614364 214.21482769 -80.5076752 217.3347921 -80.51332474 220.45511436 C-80.52003724 221.94985861 -80.5352596 223.44459015 -80.55921555 224.93915749 C-80.59087728 227.03408469 -80.59090431 229.12681968 -80.58349609 231.22192383 C-80.59158295 232.41280106 -80.5996698 233.60367828 -80.60800171 234.8306427 C-79.61876368 239.98728735 -76.21804816 242.12524997 -72.1171875 245.0703125 C-63.12945596 250.76615201 -54.01561834 256.20939546 -44.74951172 261.44091797 C-42.7958328 262.54873129 -40.84746639 263.66593657 -38.90283203 264.78955078 C-35.6756891 266.6511958 -32.43362032 268.48418569 -29.1875 270.3125 C-28.16736816 270.90643555 -27.14723633 271.50037109 -26.09619141 272.11230469 C-25.12987793 272.64887695 -24.16356445 273.18544922 -23.16796875 273.73828125 C-22.31485107 274.22337158 -21.4617334 274.70846191 -20.58276367 275.20825195 C-16.25002076 276.53645739 -13.21936964 274.58198439 -9.29711914 272.70996094 C-8.38567139 272.22301758 -7.47422363 271.73607422 -6.53515625 271.234375 C-5.49858887 270.68072266 -4.46202148 270.12707031 -3.39404297 269.55664062 C-2.29463379 268.96044922 -1.19522461 268.36425781 -0.0625 267.75 C1.64848877 266.82477539 1.64848877 266.82477539 3.39404297 265.88085938 C11.24970389 261.60591451 18.97911229 257.1416306 26.625 252.5 C27.55304443 251.93764648 28.48108887 251.37529297 29.43725586 250.79589844 C38.94048139 245.6435511 38.94048139 245.6435511 46 238 C46.11743364 235.87230405 46.16981404 233.74091691 46.19287109 231.61010742 C46.20104858 230.95460403 46.20922607 230.29910065 46.21765137 229.62373352 C46.24249562 227.45098789 46.25901911 225.27830756 46.2734375 223.10546875 C46.28142302 221.99225974 46.28142302 221.99225974 46.28956985 220.85656166 C46.31629782 216.92806659 46.33567339 212.99960325 46.35009766 209.07104492 C46.36674106 205.01543293 46.41151587 200.96063429 46.4624691 196.9053297 C46.49614364 193.78517231 46.5076752 190.6652079 46.51332474 187.54488564 C46.52003724 186.05014139 46.5352596 184.55540985 46.55921555 183.06084251 C46.59087728 180.96591531 46.59090431 178.87318032 46.58349609 176.77807617 C46.59158295 175.58719894 46.5996698 174.39632172 46.60800171 173.1693573 C45.61876368 168.01271265 42.21804816 165.87475003 38.1171875 162.9296875 C24.03400741 154.00468421 9.5730991 145.79555405 -5.0625 137.8125 C-6.64297119 136.9467334 -6.64297119 136.9467334 -8.25537109 136.06347656 C-9.2345752 135.53334961 -10.2137793 135.00322266 -11.22265625 134.45703125 C-12.09672119 133.98241455 -12.97078613 133.50779785 -13.87133789 133.01879883 C-23.288053 128.51186545 -46.87874888 147.38186691 -55.8125 152.8125 Z M55 175 C55 194.14 55 213.28 55 233 C60.53056591 229.89937413 60.53056591 229.89937413 65.65625 226.40625 C66.27951172 225.93864258 66.90277344 225.47103516 67.54492188 224.98925781 C68.19009766 224.49780273 68.83527344 224.00634766 69.5 223.5 C70.18126953 222.9853418 70.86253906 222.47068359 71.56445312 221.94042969 C78.81902165 216.43109545 85.92308477 210.73474166 93 205 C91.46173202 200.85336458 88.47487201 198.70633045 85.0625 196.125 C84.46074951 195.66174316 83.85899902 195.19848633 83.23901367 194.72119141 C81.16799416 193.13570947 79.08548734 191.56640022 77 190 C76.18466797 189.38576172 75.36933594 188.77152344 74.52929688 188.13867188 C71.96241737 186.21010661 69.38916368 184.29047 66.8125 182.375 C65.98693604 181.75898926 65.16137207 181.14297852 64.31079102 180.50830078 C63.14567993 179.64954346 63.14567993 179.64954346 61.95703125 178.7734375 C61.26585205 178.26216309 60.57467285 177.75088867 59.86254883 177.22412109 C57.91196657 175.82799955 57.91196657 175.82799955 55 175 Z M-96.25 179.375 C-96.87680664 179.82472168 -97.50361328 180.27444336 -98.14941406 180.73779297 C-108.00573045 187.84909306 -117.54790939 195.36151594 -127 203 C-125.46173202 207.14663542 -122.47487201 209.29366955 -119.0625 211.875 C-118.46074951 212.33825684 -117.85899902 212.80151367 -117.23901367 213.27880859 C-115.16799416 214.86429053 -113.08548734 216.43359978 -111 218 C-110.18466797 218.61423828 -109.36933594 219.22847656 -108.52929688 219.86132812 C-105.96241737 221.78989339 -103.38916368 223.70953 -100.8125 225.625 C-99.57415405 226.54901611 -99.57415405 226.54901611 -98.31079102 227.49169922 C-97.53405029 228.0642041 -96.75730957 228.63670898 -95.95703125 229.2265625 C-95.26585205 229.73783691 -94.57467285 230.24911133 -93.86254883 230.77587891 C-91.91196657 232.17200045 -91.91196657 232.17200045 -89 233 C-89 213.86 -89 194.72 -89 175 C-91.44018087 175 -94.26087562 177.94344119 -96.25 179.375 Z M-79 252 C-78.47112259 256.76528551 -77.93788469 261.53005722 -77.40087891 266.29443359 C-77.21938787 267.90986442 -77.03901798 269.52542168 -76.85986328 271.14111328 C-75.61819292 285.19795831 -75.61819292 285.19795831 -73 299 C-70.97116473 300.30554354 -70.97116473 300.30554354 -68.54833984 299.21484375 C-67.52949707 298.79332031 -66.5106543 298.37179687 -65.4609375 297.9375 C-64.32954346 297.4731958 -63.19814941 297.0088916 -62.0324707 296.53051758 C-60.82550537 296.02544678 -59.61854004 295.52037598 -58.375 295 C-57.15707764 294.49686279 -55.93915527 293.99372559 -54.68432617 293.4753418 C-45.73854512 289.76588393 -36.8356799 285.96455469 -28 282 C-28 281.34 -28 280.68 -28 280 C-28.50523193 279.74532959 -29.01046387 279.49065918 -29.53100586 279.22827148 C-41.9086811 272.95294927 -53.90468697 266.21199986 -65.73413086 258.95288086 C-66.73968018 258.33807861 -67.74522949 257.72327637 -68.78125 257.08984375 C-69.66876953 256.54191162 -70.55628906 255.99397949 -71.47070312 255.42944336 C-73.92609448 254.04176803 -76.35891024 252.98032364 -79 252 Z M35.1875 256.75 C28.19469701 261.08411075 21.14124044 265.28988952 14 269.375 C13.15332764 269.86194336 12.30665527 270.34888672 11.43432617 270.85058594 C5.71991516 274.10702354 -0.08951813 277.11549622 -6 280 C-3.84316746 282.37500559 -1.88575971 283.70798051 1.03515625 285.015625 C1.83630859 285.37664307 2.63746094 285.73766113 3.46289062 286.10961914 C4.74969727 286.67410767 4.74969727 286.67410767 6.0625 287.25 C6.94486328 287.6411499 7.82722656 288.0322998 8.73632812 288.43530273 C14.77968595 291.08870779 20.86256469 293.6347271 27 296.0625 C27.74644775 296.36124023 28.49289551 296.65998047 29.26196289 296.96777344 C32.7609422 298.32127808 35.19744276 299 39 299 C41.42716075 283.36300806 43.63358032 267.7677639 45 252 C41.32771825 252 38.23566605 254.83358517 35.1875 256.75 Z M-23.265625 288.6484375 C-24.19915047 289.08071655 -24.19915047 289.08071655 -25.15153503 289.52172852 C-26.49133458 290.14248602 -27.82926452 290.76729142 -29.16549683 291.39569092 C-32.65842577 293.03668484 -36.16604081 294.64533793 -39.67578125 296.25 C-40.37860733 296.57157074 -41.08143341 296.89314148 -41.80555725 297.22445679 C-51.36835278 301.56944136 -61.16086458 305.33016417 -71 309 C-65.88895349 332.38357303 -59.98952507 356.08631297 -48 377 C-47.42636719 378.00804687 -46.85273438 379.01609375 -46.26171875 380.0546875 C-40.72953108 389.23684726 -33.65411177 399.57911108 -23 403 C-15.4618568 404.31764292 -9.67447896 403.28396634 -3.3671875 398.94140625 C21.9077276 378.21263925 31.01046934 339.4993206 37 309 C36.30777344 308.72438232 35.61554688 308.44876465 34.90234375 308.16479492 C19.08949614 301.84824982 3.5212489 295.21165261 -11.88476562 287.94873047 C-16.83694648 285.72756532 -18.38671844 286.35423094 -23.265625 288.6484375 Z " fill="#2384C5" transform="translate(273,52)"/>
<path d="M0 0 C4.00670719 3.32632295 6.52534258 6.21228535 7.234375 11.50390625 C7.3634147 17.41696061 7.34835716 21.81600836 3.3359375 26.3984375 C-1.24691073 30.55582236 -5.67368082 31.28948759 -11.671875 31.08203125 C-16.83771699 30.35341011 -19.93675019 27.96511199 -23.57421875 24.234375 C-25.8825258 19.0637672 -25.89460772 14.30753835 -25.13671875 8.734375 C-22.98501534 4.27158274 -20.23171089 1.4984947 -16.13671875 -1.265625 C-10.89292965 -2.98779573 -4.79875102 -2.84240462 0 0 Z " fill="#93D0F2" transform="translate(221.13671875,89.265625)"/>
<path d="M0 0 C4.8846525 2.26787438 7.73212562 5.1153475 10 10 C10.75381535 15.5997712 10.77303575 20.33499991 8.375 25.5 C3.80134327 30.3143755 0.6912538 32.25156236 -6 32.5 C-12.6912538 32.25156236 -15.80134327 30.3143755 -20.375 25.5 C-22.77303575 20.33499991 -22.75381535 15.5997712 -22 10 C-17.52212837 0.3553534 -9.85292056 -1.32635469 0 0 Z " fill="#92D1F2" transform="translate(366,352)"/>
<path d="M0 0 C4.8846525 2.26787438 7.73212562 5.1153475 10 10 C10.75381535 15.5997712 10.77303575 20.33499991 8.375 25.5 C3.80134327 30.3143755 0.6912538 32.25156236 -6 32.5 C-12.6912538 32.25156236 -15.80134327 30.3143755 -20.375 25.5 C-22.77303575 20.33499991 -22.75381535 15.5997712 -22 10 C-17.52212837 0.3553534 -9.85292056 -1.32635469 0 0 Z " fill="#92D1F2" transform="translate(102,284)"/>
</svg>
